<?xml version="1.0" ?><svg xmlns="http://www.w3.org/2000/svg" xmlns:xlink="http://www.w3.org/1999/xlink" version="1.1" viewBox="0 0 512 512" style="enable-background:new 0 0 512 512;" xml:space="preserve"><g id="_x32_3_x2C__drum_set_x2C__drums_x2C__music_x2C__musical_instrument_x2C__music_and_multimedia_x2C__percussion_instrument"><g><g><path style="fill:#283954;" d="M381.343,139.85l78.969,41.559C466.904,184.879,471,191.662,471,199.11V241     c0,5.522,4.478,10,10,10s10-4.478,10-10v-41.89c0-14.896-8.189-28.46-21.373-35.4l-78.97-41.56     c-4.893-2.571-10.936-0.694-13.507,4.192C374.578,131.23,376.455,137.277,381.343,139.85z"/><path style="fill:#283954;" d="M491,404.384V281c0-5.522-4.478-10-10-10s-10,4.478-10,10v120h-50v-70h20c5.522,0,10-4.478,10-10     V211c0-5.522-4.478-10-10-10h-81.109c-20.779-35.84-59.566-60-103.891-60s-83.112,24.16-103.891,60H71c-5.522,0-10,4.478-10,10     v110c0,5.522,4.478,10,10,10h20v70H41V199.112c0-7.448,4.094-14.229,10.685-17.698l78.973-41.564     c4.888-2.572,6.765-8.62,4.192-13.507c-2.573-4.887-8.62-6.764-13.507-4.192L42.37,163.715C29.188,170.652,21,184.216,21,199.112     v205.243C9.335,409.893,1,421.841,1,436c0,19.299,15.701,35,35,35h90c5.522,0,10-4.478,10-10s-4.478-10-10-10H36     c-8.271,0-15-6.729-15-15c0-7.015,4.833-13.207,12.051-14.712C35.304,420.842,4.813,421,476,421c8.271,0,15,6.729,15,15     c0,8.294-6.702,15-15,15H166c-5.522,0-10,4.478-10,10s4.478,10,10,10h310c19.349,0,35-15.646,35-35     C511,422.066,502.814,410.012,491,404.384z M431,221v20h-56.676c-1.16-6.882-2.906-13.566-5.188-20H431z M376,261h55v50h-65.926     C372.083,295.77,376,278.835,376,261z M156.406,252.036c0.001-0.012,0.002-0.023,0.003-0.035c4.566-50.939,47.484-91,99.591-91     c55.219,0,100,44.956,100,100c0,55.141-44.859,100-100,100C197.465,361,151.172,310.681,156.406,252.036z M81,221h61.864     c-2.281,6.434-4.028,13.118-5.188,20H81V221z M81,311v-50h55c0,17.835,3.917,34.77,10.926,50H81z M111,401v-70h47.592     c4.445,6.168,9.459,11.9,14.967,17.115L145.033,401H111z M167.755,401l21.685-40.201c40.275,26.949,92.845,26.948,133.119,0     L344.245,401H167.755z M401,401h-34.033l-28.527-52.885c5.509-5.216,10.522-10.947,14.967-17.115H401V401z"/></g><g><path style="fill:#DC5461;" d="M209.333,91c0-34.502-47.943-50-83.333-50c-35.992,0-83.333,15.796-83.333,50     c0,34.502,47.943,50,83.333,50C161.992,141,209.333,125.204,209.333,91z M126,121c-37.323,0-63.333-15.811-63.333-30     S88.677,61,126,61s63.333,15.811,63.333,30S163.323,121,126,121z"/><path style="fill:#DC5461;" d="M386,41c-35.992,0-83.333,15.796-83.333,50c0,34.502,47.943,50,83.333,50     c35.992,0,83.333-15.796,83.333-50C469.333,56.498,421.39,41,386,41z M386,121c-37.323,0-63.333-15.811-63.333-30     S348.677,61,386,61s63.333,15.811,63.333,30S423.323,121,386,121z"/><path style="fill:#DC5461;" d="M256,191c-38.598,0-70,31.402-70,70s31.402,70,70,70s70-31.402,70-70S294.598,191,256,191z      M256,311c-27.57,0-50-22.43-50-50s22.43-50,50-50s50,22.43,50,50S283.57,311,256,311z"/></g></g></g><g id="Layer_1"/></svg>