<?xml version="1.0" ?><svg xmlns="http://www.w3.org/2000/svg" xmlns:xlink="http://www.w3.org/1999/xlink" version="1.1" viewBox="0 0 512 512" style="enable-background:new 0 0 512 512;" xml:space="preserve"><g id="_x31_3_x2C__electric_guitar_x2C__music_x2C__orchestra_x2C__musical_instrument_x2C__string_instrument_x2C__music_and_multimedia"><g><path style="fill:#DC5461;" d="M359.211,109.372c-3.906-3.904-10.236-3.904-14.143,0c-3.905,3.905-3.905,10.237,0,14.143    l43.417,43.417c3.907,3.906,10.236,3.905,14.143,0c3.905-3.905,3.905-10.237,0-14.143L359.211,109.372z"/><path style="fill:#DC5461;" d="M321.995,146.587c-3.906-3.904-10.236-3.904-14.143,0c-3.905,3.905-3.905,10.237,0,14.143    l43.418,43.418c3.907,3.906,10.236,3.904,14.143,0c3.905-3.905,3.905-10.237,0-14.143L321.995,146.587z"/><path style="fill:#DC5461;" d="M284.781,183.802c-3.906-3.904-10.236-3.904-14.143,0c-3.905,3.905-3.905,10.237,0,14.143    l43.418,43.418c3.907,3.905,10.236,3.905,14.143,0c3.905-3.905,3.905-10.237,0-14.143L284.781,183.802z"/><path style="fill:#DC5461;" d="M170.033,279.942c-10.763-10.765-28.186-10.767-38.953,0c-10.737,10.738-10.737,28.213,0,38.952    l62.025,62.024c10.737,10.737,28.213,10.742,38.952,0c10.765-10.763,10.767-28.186,0.001-38.952L170.033,279.942z     M217.916,366.776c-2.941,2.941-7.727,2.941-10.668,0l-62.025-62.023c-2.94-2.941-2.94-7.728,0.001-10.67    c2.946-2.946,7.719-2.949,10.667,0.001l62.026,62.025C220.864,359.055,220.867,363.828,217.916,366.776z"/><g><path style="fill:#283954;" d="M229.19,439.69c-4.685-2.928-10.854-1.503-13.779,3.18l-19.892,31.824l-14.875-70.217     c-1.029-4.859-5.464-8.217-10.427-7.907l-58.564,3.777l3.777-58.564c0.319-4.957-3.048-9.397-7.907-10.427L37.306,316.48     l108.314-67.701c4.684-2.927,6.107-9.097,3.18-13.779c-2.926-4.683-9.096-6.108-13.779-3.18L5.7,312.65     c-3.458,2.161-5.257,6.205-4.548,10.22c0.71,4.016,3.786,7.197,7.775,8.043l85.986,18.217l-3.953,61.286     c-0.39,6.061,4.644,11.004,10.623,10.623l61.286-3.953l18.217,85.986c0.981,4.627,5.064,7.928,9.785,7.928     c3.406,0,6.63-1.744,8.478-4.7l33.02-52.83C235.297,448.787,233.873,442.617,229.19,439.69z"/><path style="fill:#283954;" d="M439.844,115.574l-43.418-43.418c-3.906-3.904-10.236-3.904-14.143,0L240.491,213.948     l-9.136-9.136c-12.02-12.033-30.494-14.14-44.926-5.122l-17.5,10.94c-4.684,2.928-6.106,9.098-3.179,13.78     c2.928,4.684,9.098,6.105,13.78,3.179l17.497-10.938c6.483-4.05,14.782-3.105,20.181,2.3l9.14,9.14l-8.433,8.433     c-15.869,15.869-15.869,41.691,0,57.561c15.867,15.867,41.691,15.87,57.561,0l8.433-8.433l9.144,9.144     c5.402,5.396,6.347,13.692,2.298,20.174l-58.75,93.99c-2.928,4.684-1.504,10.854,3.179,13.78     c4.682,2.926,10.853,1.505,13.78-3.179l58.752-93.993c9.015-14.432,6.907-32.904-5.12-44.919l-9.14-9.14l141.792-141.792     C443.749,125.811,443.749,119.479,439.844,115.574z M261.334,279.941c-8.07,8.072-21.205,8.072-29.275,0     c-8.071-8.071-8.071-21.204,0-29.275l8.435-8.435l29.275,29.275L261.334,279.941z M283.911,257.364l-29.275-29.275L389.355,93.37     l29.275,29.275L283.911,257.364z"/></g><path style="fill:#DC5461;" d="M508.072,47.346L464.654,3.929c-3.417-3.417-8.79-3.9-12.764-1.15l-80.633,55.823    c-5.123,3.547-5.791,10.881-1.379,15.293l68.228,68.228c4.399,4.399,11.735,3.76,15.293-1.379l55.823-80.633    C511.973,56.137,511.489,50.764,508.072,47.346z M443.776,119.507l-51.282-51.282l63.919-44.252l31.615,31.615L443.776,119.507z"/></g></g><g id="Layer_1"/></svg>