<?xml version="1.0" ?><svg xmlns="http://www.w3.org/2000/svg" xmlns:xlink="http://www.w3.org/1999/xlink" version="1.1" viewBox="0 0 512 512" style="enable-background:new 0 0 512 512;" xml:space="preserve"><g id="_x32_2_x2C__headphones_x2C__music_headphones_x2C__audio_headphones_x2C__electronics_x2C__music_x2C__music_and_multimedia"><g><g><path style="fill:#283954;" d="M481,304.256v-38.251c0-65.625-28.561-127.825-78.359-170.652     c-4.188-3.6-10.502-3.126-14.103,1.062s-3.126,10.501,1.062,14.103c45.376,39.023,71.4,95.696,71.4,155.488v28.261     c-6.739-2.116-13.905-3.261-21.333-3.261H431v-25c0-49.303-20.964-96.573-57.517-129.69c-4.092-3.709-10.418-3.397-14.124,0.696     c-3.709,4.093-3.397,10.416,0.695,14.125C392.432,180.47,411,222.338,411,266.005v25h-30c-5.522,0-10,4.478-10,10v57.46     c0,5.522,4.478,10,10,10s10-4.478,10-10v-47.46h20v160h-20v-72.54c0-5.522-4.478-10-10-10s-10,4.478-10,10v82.54     c0,5.522,4.478,10,10,10c6.771,0,51.907,0,58.667,0c39.333,0,71.333-32,71.333-71.333v-57.334     C511,338.404,499.139,317.202,481,304.256z M491,419.672c0,28.305-23.028,51.333-51.333,51.333H431v-160h8.667     c28.305,0,51.333,23.028,51.333,51.333V419.672z"/><path style="fill:#283954;" d="M138.52,136.312C102.4,169.009,81,215.29,81,266.005v25h-8.667     c-7.428,0-14.594,1.145-21.333,3.261v-28.261c0-61.144,26.615-117.027,71.396-155.484c4.189-3.599,4.669-9.912,1.07-14.102     c-3.597-4.188-9.91-4.668-14.102-1.07C60.345,137.447,31,198.719,31,266.005v38.251c-18.139,12.946-30,34.148-30,58.082v57.334     c0,39.333,32,71.333,71.333,71.333c6.744,0,51.901,0,58.667,0c5.522,0,10-4.478,10-10v-180c0-5.522-4.478-10-10-10h-30v-25     c0-45.18,19.143-86.062,50.941-114.867c4.095-3.706,4.409-10.03,0.702-14.124C148.938,132.919,142.612,132.606,138.52,136.312z      M81,471.005h-8.667C44.028,471.005,21,447.977,21,419.672v-57.334c0-28.305,23.028-51.333,51.333-51.333H81V471.005z      M121,311.005v160h-20v-160H121z"/></g><g><path style="fill:#DC5461;" d="M378.897,53.95c-49.999-29.078-108.745-39.011-164.64-29.411     c-5.443,0.935-9.099,6.105-8.163,11.548c0.934,5.443,6.098,9.097,11.548,8.163c50.667-8.702,104.75-0.025,151.199,26.988     c16.429,9.558,22.365,30.983,12.501,47.896c-9.724,16.666-31.12,22.392-47.696,12.766c-47.875-27.837-107.355-27.874-155.294,0     c-16.686,9.704-38.048,3.775-47.695-12.765c-9.759-16.729-4.174-38.188,12.501-47.897c11.926-6.937,24.528-12.773,37.457-17.346     c5.206-1.842,7.935-7.556,6.093-12.763c-1.842-5.206-7.555-7.932-12.763-6.093c-14.101,4.987-27.843,11.351-40.847,18.916     c-26.265,15.291-35.035,49.007-19.717,75.26c15.055,25.812,48.574,35.358,75.024,19.977     c41.663-24.224,93.463-24.26,135.191,0.003c8.607,4.999,18.032,7.374,27.353,7.373c30.798-0.003,55.189-25.018,55.189-55.11     C406.14,81.928,395.701,63.726,378.897,53.95z"/></g></g></g><g id="Layer_1"/></svg>