<?xml version="1.0" ?><svg xmlns="http://www.w3.org/2000/svg" xmlns:xlink="http://www.w3.org/1999/xlink" version="1.1" viewBox="0 0 512 512" style="enable-background:new 0 0 512 512;" xml:space="preserve"><g id="_x34_1_x2C__keyboard_x2C__music_and_multimedia_x2C__musical_instrument_x2C__piano_x2C__instrument_x2C__music"><g><g><path style="fill:#DC5461;" d="M141,1h-40c-5.522,0-10,4.478-10,10v100c0,5.522,4.478,10,10,10h40c5.522,0,10-4.478,10-10V11     C151,5.478,146.522,1,141,1z M131,101h-20V21h20V101z"/><path style="fill:#DC5461;" d="M231,1h-40c-5.522,0-10,4.478-10,10v100c0,5.522,4.478,10,10,10h40c5.522,0,10-4.478,10-10V11     C241,5.478,236.522,1,231,1z M221,101h-20V21h20V101z"/><path style="fill:#DC5461;" d="M321,1h-40c-5.522,0-10,4.478-10,10v100c0,5.522,4.478,10,10,10h40c5.522,0,10-4.478,10-10V11     C331,5.478,326.522,1,321,1z M311,101h-20V21h20V101z"/><path style="fill:#DC5461;" d="M411,1h-40c-5.522,0-10,4.478-10,10v100c0,5.522,4.478,10,10,10h40c5.522,0,10-4.478,10-10V11     C421,5.478,416.522,1,411,1z M401,101h-20V21h20V101z"/></g><path style="fill:#283954;" d="M501,121c5.522,0,10-4.478,10-10V39c0-20.953-17.047-38-38-38C451.108,1,59.75,1,39,1    C18.047,1,1,18.047,1,39v174c0,20.953,17.047,38,38,38h48.535l152.308,120L84.812,493.146c-4.339,3.418-5.084,9.705-1.666,14.043    c3.427,4.351,9.72,5.074,14.043,1.666L256,383.73l158.812,125.124c4.318,3.403,10.612,2.691,14.043-1.666    c3.418-4.338,2.673-10.625-1.666-14.043L272.158,371l152.308-120H473c20.953,0,38-17.047,38-38v-62c0-5.522-4.478-10-10-10    s-10,4.478-10,10v62c0,9.925-8.075,18-18,18H247.67c-5.522,0-10,4.478-10,10s4.478,10,10,10h144.48L256,358.27L119.85,251h87.82    c5.522,0,10-4.478,10-10s-4.478-10-10-10H39c-9.925,0-18-8.075-18-18V39c0-9.925,8.075-18,18-18h2v180c0,5.522,4.478,10,10,10h410    c5.522,0,10-4.478,10-10V21h2c9.925,0,18,8.075,18,18v72C491,116.522,495.478,121,501,121z M451,191h-50v-70h-20v70h-70v-70h-20    v70h-70v-70h-20v70h-70v-70h-20v70H61V21h390V191z"/></g></g><g id="Layer_1"/></svg>