<?xml version="1.0" ?><svg xmlns="http://www.w3.org/2000/svg" xmlns:xlink="http://www.w3.org/1999/xlink" version="1.1" viewBox="0 0 512 512" style="enable-background:new 0 0 512 512;" xml:space="preserve"><g id="_x33_0_x2C__dj_mixer_x2C__audio_controller_x2C__fader_x2C__DJ_x2C__music_player_x2C__controller"><g><g><path style="fill:#DC5461;" d="M371,146c-27.57,0-50,22.43-50,50s22.43,50,50,50s50-22.43,50-50S398.57,146,371,146z M371,226     c-16.542,0-30-13.458-30-30s13.458-30,30-30s30,13.458,30,30S387.542,226,371,226z"/><path style="fill:#DC5461;" d="M141,146c-27.57,0-50,22.43-50,50s22.43,50,50,50s50-22.43,50-50S168.57,146,141,146z M141,226     c-16.542,0-30-13.458-30-30s13.458-30,30-30s30,13.458,30,30S157.542,226,141,226z"/><path style="fill:#DC5461;" d="M71,366c-16.542,0-30,13.458-30,30s13.458,30,30,30s30-13.458,30-30S87.542,366,71,366z M71,406     c-5.514,0-10-4.486-10-10s4.486-10,10-10s10,4.486,10,10S76.514,406,71,406z"/><path style="fill:#DC5461;" d="M151,366c-16.542,0-30,13.458-30,30s13.458,30,30,30s30-13.458,30-30S167.542,366,151,366z      M151,406c-5.514,0-10-4.486-10-10s4.486-10,10-10s10,4.486,10,10S156.514,406,151,406z"/><path style="fill:#DC5461;" d="M231,366c-16.542,0-30,13.458-30,30s13.458,30,30,30s30-13.458,30-30S247.542,366,231,366z      M231,406c-5.514,0-10-4.486-10-10s4.486-10,10-10s10,4.486,10,10S236.514,406,231,406z"/></g><g><path style="fill:#283954;" d="M471,46H371c-5.522,0-10,4.478-10,10s4.478,10,10,10h100c11.028,0,20,8.972,20,20v240H167.73     c-5.522,0-10,4.478-10,10s4.478,10,10,10H491v80c0,11.028-8.972,20-20,20H41c-11.028,0-20-8.972-20-20v-80h106.73     c5.522,0,10-4.478,10-10s-4.478-10-10-10H21V86c0-11.028,8.972-20,20-20h290c5.522,0,10-4.478,10-10s-4.478-10-10-10H41     C18.944,46,1,63.944,1,86c0,18.095,0,321.907,0,340c0,22.056,17.944,40,40,40h430c22.056,0,40-17.944,40-40     c0-18.093,0-321.904,0-340C511,63.944,493.056,46,471,46z"/><path style="fill:#283954;" d="M41,196c0,55.141,44.859,100,100,100s100-44.859,100-100S196.141,96,141,96S41,140.859,41,196z      M221,196c0,44.112-35.888,80-80,80s-80-35.888-80-80s35.888-80,80-80S221,151.888,221,196z"/><path style="fill:#283954;" d="M271,196c0,55.141,44.859,100,100,100s100-44.859,100-100S426.141,96,371,96S271,140.859,271,196z      M371,116c44.112,0,80,35.888,80,80s-35.888,80-80,80s-80-35.888-80-80S326.888,116,371,116z"/><path style="fill:#283954;" d="M372.72,406c4.128,11.639,15.243,20,28.28,20s24.152-8.361,28.28-20H461c5.522,0,10-4.478,10-10     s-4.478-10-10-10h-31.72c-4.128-11.639-15.243-20-28.28-20s-24.152,8.361-28.28,20H291c-5.522,0-10,4.478-10,10s4.478,10,10,10     H372.72z M401,386c5.514,0,10,4.486,10,10s-4.486,10-10,10s-10-4.486-10-10S395.486,386,401,386z"/></g></g></g><g id="Layer_1"/></svg>