<?xml version="1.0" ?><svg xmlns="http://www.w3.org/2000/svg" xmlns:xlink="http://www.w3.org/1999/xlink" version="1.1" viewBox="0 0 512 512" style="enable-background:new 0 0 512 512;" xml:space="preserve"><g id="_x31_7_x2C__speaker_x2C__audio_system_x2C__music_and_multimedia_x2C__sound_system_x2C__subwoofer_x2C__woofer"><g><g><path style="fill:#DC5461;" d="M176,271c-35.841,0-65,29.159-65,65s29.159,65,65,65s65-29.159,65-65S211.841,271,176,271z      M176,381c-24.813,0-45-20.187-45-45s20.187-45,45-45s45,20.187,45,45S200.813,381,176,381z"/><path style="fill:#DC5461;" d="M176,51c-35.841,0-65,29.159-65,65s29.159,65,65,65s65-29.159,65-65S211.841,51,176,51z M176,161     c-24.813,0-45-20.187-45-45s20.187-45,45-45s45,20.187,45,45S200.813,161,176,161z"/><path style="fill:#DC5461;" d="M386,321c-41.355,0-75,33.645-75,75s33.645,75,75,75s75-33.645,75-75S427.355,321,386,321z      M386,451c-30.327,0-55-24.673-55-55s24.673-55,55-55s55,24.673,55,55S416.327,451,386,451z"/><path style="fill:#DC5461;" d="M386,301c22.056,0,40-17.944,40-40s-17.944-40-40-40s-40,17.944-40,40S363.944,301,386,301z      M386,241c11.028,0,20,8.972,20,20s-8.972,20-20,20s-20-8.972-20-20S374.972,241,386,241z"/></g><g><path style="fill:#283954;" d="M471,181h-37c-5.522,0-10,4.478-10,10s4.478,10,10,10h37c11.028,0,20,8.972,20,20v250     c0,11.028-8.972,20-20,20c-9.883,0-181.844,0-190,0c0-34.052,0-241.966,0-270c0-11.028,8.972-20,20-20h93c5.522,0,10-4.478,10-10     s-4.478-10-10-10h-43V41c0-22.056-17.944-40-40-40H41C18.944,1,1,18.944,1,41v120c0,5.522,4.478,10,10,10s10-4.478,10-10V41     c0-11.028,8.972-20,20-20h270c11.028,0,20,8.972,20,20v140h-30c-22.056,0-40,17.944-40,40v23.365     C238.119,223.142,207.871,211,176,211c-68.925,0-125,56.075-125,125s56.075,125,125,125c31.871,0,62.119-12.142,85-33.365V491H41     c-11.028,0-20-8.972-20-20V201c0-5.522-4.478-10-10-10s-10,4.478-10,10v270c0,22.056,17.944,40,40,40c12.465,0,423.176,0,430,0     c22.056,0,40-17.944,40-40V221C511,198.944,493.056,181,471,181z M261,397.647C241.244,424.849,209.697,441,176,441     c-57.897,0-105-47.103-105-105s47.103-105,105-105c33.697,0,65.244,16.151,85,43.353V397.647z"/><path style="fill:#283954;" d="M351,396c0,19.299,15.701,35,35,35s35-15.701,35-35s-15.701-35-35-35S351,376.701,351,396z      M401,396c0,8.271-6.729,15-15,15s-15-6.729-15-15s6.729-15,15-15S401,387.729,401,396z"/></g></g></g><g id="Layer_1"/></svg>