<?xml version="1.0" ?><svg xmlns="http://www.w3.org/2000/svg" xmlns:xlink="http://www.w3.org/1999/xlink" version="1.1" viewBox="0 0 512 512" style="enable-background:new 0 0 512 512;" xml:space="preserve"><g id="_x31_0_x2C__vinyl_player_x2C__music_and_multimedia_x2C__vinyl_disc_x2C__turntable_x2C__music_player_x2C__vinyl"><g><g><path style="fill:#283954;" d="M341,436H41c-11.028,0-20-8.972-20-20V96c0-11.028,8.972-20,20-20h100.33c5.522,0,10-4.478,10-10     c0-5.523-4.478-10-10-10H41C18.944,56,1,73.944,1,96v320c0,22.056,17.944,40,40,40h300c5.522,0,10-4.478,10-10     C351,440.477,346.522,436,341,436z"/><path style="fill:#283954;" d="M471,56H181.33c-5.522,0-10,4.477-10,10c0,5.522,4.478,10,10,10H471c11.028,0,20,8.972,20,20v320     c0,11.028-8.972,20-20,20h-90c-5.522,0-10,4.477-10,10c0,5.522,4.478,10,10,10h90c22.056,0,40-17.944,40-40V96     C511,73.944,493.056,56,471,56z"/><path style="fill:#283954;" d="M201,106c-82.71,0-150,67.29-150,150s67.29,150,150,150s150-67.29,150-150S283.71,106,201,106z      M201,386c-71.683,0-130-58.317-130-130s58.317-130,130-130s130,58.317,130,130S272.683,386,201,386z"/><path style="fill:#283954;" d="M201,216c-22.056,0-40,17.944-40,40c0,22.056,17.944,40,40,40s40-17.944,40-40     C241,233.944,223.056,216,201,216z M201,276c-11.028,0-20-8.972-20-20c0-11.028,8.972-20,20-20s20,8.972,20,20     C221,267.028,212.028,276,201,276z"/><path style="fill:#283954;" d="M381.878,372.01l30.193-18.712c11.853-7.345,18.929-20.056,18.929-34V196c0-5.523-4.478-10-10-10     s-10,4.477-10,10v123.298c0,6.973-3.538,13.327-9.464,17l-30.193,18.712c-4.694,2.909-6.142,9.073-3.232,13.768     C371.023,373.479,377.19,374.914,381.878,372.01z"/></g><g><path style="fill:#DC5461;" d="M201,176c-44.112,0-80,35.888-80,80s35.888,80,80,80s80-35.888,80-80S245.112,176,201,176z      M201,316c-33.084,0-60-26.916-60-60c0-33.084,26.916-60,60-60s60,26.916,60,60C261,289.084,234.084,316,201,316z"/><path style="fill:#DC5461;" d="M421,106c-22.056,0-40,17.944-40,40v20c0,22.056,17.944,40,40,40s40-17.944,40-40v-20     C461,123.944,443.056,106,421,106z M441,166c0,11.028-8.972,20-20,20s-20-8.972-20-20v-20c0-11.028,8.972-20,20-20     s20,8.972,20,20V166z"/><path style="fill:#DC5461;" d="M361,346c-16.542,0-30,13.458-30,30s13.458,30,30,30s30-13.458,30-30S377.542,346,361,346z      M361,386c-5.514,0-10-4.486-10-10c0-5.514,4.486-10,10-10s10,4.486,10,10C371,381.514,366.514,386,361,386z"/></g></g></g><g id="Layer_1"/></svg>